<?xml version="1.0" encoding="utf-8" standalone="no"?>
<!DOCTYPE svg PUBLIC "-//W3C//DTD SVG 1.1//EN"
  "http://www.w3.org/Graphics/SVG/1.1/DTD/svg11.dtd">
<svg xmlns:xlink="http://www.w3.org/1999/xlink" width="851.737417pt" height="370.398125pt" viewBox="0 0 851.737417 370.398125" xmlns="http://www.w3.org/2000/svg" version="1.1">
 <metadata>
  <rdf:RDF xmlns:dc="http://purl.org/dc/elements/1.1/" xmlns:cc="http://creativecommons.org/ns#" xmlns:rdf="http://www.w3.org/1999/02/22-rdf-syntax-ns#">
   <cc:Work>
    <dc:type rdf:resource="http://purl.org/dc/dcmitype/StillImage"/>
    <dc:date>2026-04-19T17:10:48.351679</dc:date>
    <dc:format>image/svg+xml</dc:format>
    <dc:creator>
     <cc:Agent>
      <dc:title>Matplotlib v3.10.7, https://matplotlib.org/</dc:title>
     </cc:Agent>
    </dc:creator>
   </cc:Work>
  </rdf:RDF>
 </metadata>
 <defs>
  <style type="text/css">*{stroke-linejoin: round; stroke-linecap: butt}</style>
 </defs>
 <g id="figure_1">
  <g id="patch_1">
   <path d="M 0 370.398125 
L 851.737417 370.398125 
L 851.737417 0 
L 0 0 
z
" style="fill: #ffffff"/>
  </g>
  <g id="axes_1">
   <g id="patch_2">
    <path d="M 48.90125 346.52 
L 395.972333 346.52 
L 395.972333 69.4 
L 48.90125 69.4 
z
" style="fill: #ffffff"/>
   </g>
   <g id="patch_3">
    <path d="M 64.677208 346.52 
L 222.436792 346.52 
L 222.436792 208.708224 
L 64.677208 208.708224 
z
" clip-path="url(#pcb2603ff06)" style="fill: #e74c3c; stroke: #000000; stroke-width: 1.2; stroke-linejoin: miter"/>
   </g>
   <g id="patch_4">
    <path d="M 222.436792 346.52 
L 380.196375 346.52 
L 380.196375 112.796992 
L 222.436792 112.796992 
z
" clip-path="url(#pcb2603ff06)" style="fill: #27ae60; stroke: #000000; stroke-width: 1.2; stroke-linejoin: miter"/>
   </g>
   <g id="matplotlib.axis_1">
    <g id="xtick_1">
     <g id="line2d_1">
      <defs>
       <path id="m2e1f5e7c09" d="M 0 0 
L 0 3.5 
" style="stroke: #000000; stroke-width: 0.8"/>
      </defs>
      <g>
       <use xlink:href="#m2e1f5e7c09" x="222.436792" y="346.52" style="stroke: #000000; stroke-width: 0.8"/>
      </g>
     </g>
     <g id="text_1">
      <!-- FPS -->
      <g transform="translate(213.371948 361.118437) scale(0.1 -0.1)">
       <defs>
        <path id="DejaVuSans-46" d="M 628 4666 
L 3309 4666 
L 3309 4134 
L 1259 4134 
L 1259 2759 
L 3109 2759 
L 3109 2228 
L 1259 2228 
L 1259 0 
L 628 0 
L 628 4666 
z
" transform="scale(0.015625)"/>
        <path id="DejaVuSans-50" d="M 1259 4147 
L 1259 2394 
L 2053 2394 
Q 2494 2394 2734 2622 
Q 2975 2850 2975 3272 
Q 2975 3691 2734 3919 
Q 2494 4147 2053 4147 
L 1259 4147 
z
M 628 4666 
L 2053 4666 
Q 2838 4666 3239 4311 
Q 3641 3956 3641 3272 
Q 3641 2581 3239 2228 
Q 2838 1875 2053 1875 
L 1259 1875 
L 1259 0 
L 628 0 
L 628 4666 
z
" transform="scale(0.015625)"/>
        <path id="DejaVuSans-53" d="M 3425 4513 
L 3425 3897 
Q 3066 4069 2747 4153 
Q 2428 4238 2131 4238 
Q 1616 4238 1336 4038 
Q 1056 3838 1056 3469 
Q 1056 3159 1242 3001 
Q 1428 2844 1947 2747 
L 2328 2669 
Q 3034 2534 3370 2195 
Q 3706 1856 3706 1288 
Q 3706 609 3251 259 
Q 2797 -91 1919 -91 
Q 1588 -91 1214 -16 
Q 841 59 441 206 
L 441 856 
Q 825 641 1194 531 
Q 1563 422 1919 422 
Q 2459 422 2753 634 
Q 3047 847 3047 1241 
Q 3047 1584 2836 1778 
Q 2625 1972 2144 2069 
L 1759 2144 
Q 1053 2284 737 2584 
Q 422 2884 422 3419 
Q 422 4038 858 4394 
Q 1294 4750 2059 4750 
Q 2388 4750 2728 4690 
Q 3069 4631 3425 4513 
z
" transform="scale(0.015625)"/>
       </defs>
       <use xlink:href="#DejaVuSans-46"/>
       <use xlink:href="#DejaVuSans-50" transform="translate(57.519531 0)"/>
       <use xlink:href="#DejaVuSans-53" transform="translate(117.822266 0)"/>
      </g>
     </g>
    </g>
   </g>
   <g id="matplotlib.axis_2">
    <g id="ytick_1">
     <g id="line2d_2">
      <path d="M 48.90125 346.52 
L 395.972333 346.52 
" clip-path="url(#pcb2603ff06)" style="fill: none; stroke: #b0b0b0; stroke-opacity: 0.3; stroke-width: 0.8; stroke-linecap: square"/>
     </g>
     <g id="line2d_3">
      <defs>
       <path id="mdd2410c20c" d="M 0 0 
L -3.5 0 
" style="stroke: #000000; stroke-width: 0.8"/>
      </defs>
      <g>
       <use xlink:href="#mdd2410c20c" x="48.90125" y="346.52" style="stroke: #000000; stroke-width: 0.8"/>
      </g>
     </g>
     <g id="text_2">
      <!-- 0 -->
      <g transform="translate(35.53875 350.319219) scale(0.1 -0.1)">
       <defs>
        <path id="DejaVuSans-30" d="M 2034 4250 
Q 1547 4250 1301 3770 
Q 1056 3291 1056 2328 
Q 1056 1369 1301 889 
Q 1547 409 2034 409 
Q 2525 409 2770 889 
Q 3016 1369 3016 2328 
Q 3016 3291 2770 3770 
Q 2525 4250 2034 4250 
z
M 2034 4750 
Q 2819 4750 3233 4129 
Q 3647 3509 3647 2328 
Q 3647 1150 3233 529 
Q 2819 -91 2034 -91 
Q 1250 -91 836 529 
Q 422 1150 422 2328 
Q 422 3509 836 4129 
Q 1250 4750 2034 4750 
z
" transform="scale(0.015625)"/>
       </defs>
       <use xlink:href="#DejaVuSans-30"/>
      </g>
     </g>
    </g>
    <g id="ytick_2">
     <g id="line2d_4">
      <path d="M 48.90125 291.096 
L 395.972333 291.096 
" clip-path="url(#pcb2603ff06)" style="fill: none; stroke: #b0b0b0; stroke-opacity: 0.3; stroke-width: 0.8; stroke-linecap: square"/>
     </g>
     <g id="line2d_5">
      <g>
       <use xlink:href="#mdd2410c20c" x="48.90125" y="291.096" style="stroke: #000000; stroke-width: 0.8"/>
      </g>
     </g>
     <g id="text_3">
      <!-- 20 -->
      <g transform="translate(29.17625 294.895219) scale(0.1 -0.1)">
       <defs>
        <path id="DejaVuSans-32" d="M 1228 531 
L 3431 531 
L 3431 0 
L 469 0 
L 469 531 
Q 828 903 1448 1529 
Q 2069 2156 2228 2338 
Q 2531 2678 2651 2914 
Q 2772 3150 2772 3378 
Q 2772 3750 2511 3984 
Q 2250 4219 1831 4219 
Q 1534 4219 1204 4116 
Q 875 4013 500 3803 
L 500 4441 
Q 881 4594 1212 4672 
Q 1544 4750 1819 4750 
Q 2544 4750 2975 4387 
Q 3406 4025 3406 3419 
Q 3406 3131 3298 2873 
Q 3191 2616 2906 2266 
Q 2828 2175 2409 1742 
Q 1991 1309 1228 531 
z
" transform="scale(0.015625)"/>
       </defs>
       <use xlink:href="#DejaVuSans-32"/>
       <use xlink:href="#DejaVuSans-30" transform="translate(63.623047 0)"/>
      </g>
     </g>
    </g>
    <g id="ytick_3">
     <g id="line2d_6">
      <path d="M 48.90125 235.672 
L 395.972333 235.672 
" clip-path="url(#pcb2603ff06)" style="fill: none; stroke: #b0b0b0; stroke-opacity: 0.3; stroke-width: 0.8; stroke-linecap: square"/>
     </g>
     <g id="line2d_7">
      <g>
       <use xlink:href="#mdd2410c20c" x="48.90125" y="235.672" style="stroke: #000000; stroke-width: 0.8"/>
      </g>
     </g>
     <g id="text_4">
      <!-- 40 -->
      <g transform="translate(29.17625 239.471219) scale(0.1 -0.1)">
       <defs>
        <path id="DejaVuSans-34" d="M 2419 4116 
L 825 1625 
L 2419 1625 
L 2419 4116 
z
M 2253 4666 
L 3047 4666 
L 3047 1625 
L 3713 1625 
L 3713 1100 
L 3047 1100 
L 3047 0 
L 2419 0 
L 2419 1100 
L 313 1100 
L 313 1709 
L 2253 4666 
z
" transform="scale(0.015625)"/>
       </defs>
       <use xlink:href="#DejaVuSans-34"/>
       <use xlink:href="#DejaVuSans-30" transform="translate(63.623047 0)"/>
      </g>
     </g>
    </g>
    <g id="ytick_4">
     <g id="line2d_8">
      <path d="M 48.90125 180.248 
L 395.972333 180.248 
" clip-path="url(#pcb2603ff06)" style="fill: none; stroke: #b0b0b0; stroke-opacity: 0.3; stroke-width: 0.8; stroke-linecap: square"/>
     </g>
     <g id="line2d_9">
      <g>
       <use xlink:href="#mdd2410c20c" x="48.90125" y="180.248" style="stroke: #000000; stroke-width: 0.8"/>
      </g>
     </g>
     <g id="text_5">
      <!-- 60 -->
      <g transform="translate(29.17625 184.047219) scale(0.1 -0.1)">
       <defs>
        <path id="DejaVuSans-36" d="M 2113 2584 
Q 1688 2584 1439 2293 
Q 1191 2003 1191 1497 
Q 1191 994 1439 701 
Q 1688 409 2113 409 
Q 2538 409 2786 701 
Q 3034 994 3034 1497 
Q 3034 2003 2786 2293 
Q 2538 2584 2113 2584 
z
M 3366 4563 
L 3366 3988 
Q 3128 4100 2886 4159 
Q 2644 4219 2406 4219 
Q 1781 4219 1451 3797 
Q 1122 3375 1075 2522 
Q 1259 2794 1537 2939 
Q 1816 3084 2150 3084 
Q 2853 3084 3261 2657 
Q 3669 2231 3669 1497 
Q 3669 778 3244 343 
Q 2819 -91 2113 -91 
Q 1303 -91 875 529 
Q 447 1150 447 2328 
Q 447 3434 972 4092 
Q 1497 4750 2381 4750 
Q 2619 4750 2861 4703 
Q 3103 4656 3366 4563 
z
" transform="scale(0.015625)"/>
       </defs>
       <use xlink:href="#DejaVuSans-36"/>
       <use xlink:href="#DejaVuSans-30" transform="translate(63.623047 0)"/>
      </g>
     </g>
    </g>
    <g id="ytick_5">
     <g id="line2d_10">
      <path d="M 48.90125 124.824 
L 395.972333 124.824 
" clip-path="url(#pcb2603ff06)" style="fill: none; stroke: #b0b0b0; stroke-opacity: 0.3; stroke-width: 0.8; stroke-linecap: square"/>
     </g>
     <g id="line2d_11">
      <g>
       <use xlink:href="#mdd2410c20c" x="48.90125" y="124.824" style="stroke: #000000; stroke-width: 0.8"/>
      </g>
     </g>
     <g id="text_6">
      <!-- 80 -->
      <g transform="translate(29.17625 128.623219) scale(0.1 -0.1)">
       <defs>
        <path id="DejaVuSans-38" d="M 2034 2216 
Q 1584 2216 1326 1975 
Q 1069 1734 1069 1313 
Q 1069 891 1326 650 
Q 1584 409 2034 409 
Q 2484 409 2743 651 
Q 3003 894 3003 1313 
Q 3003 1734 2745 1975 
Q 2488 2216 2034 2216 
z
M 1403 2484 
Q 997 2584 770 2862 
Q 544 3141 544 3541 
Q 544 4100 942 4425 
Q 1341 4750 2034 4750 
Q 2731 4750 3128 4425 
Q 3525 4100 3525 3541 
Q 3525 3141 3298 2862 
Q 3072 2584 2669 2484 
Q 3125 2378 3379 2068 
Q 3634 1759 3634 1313 
Q 3634 634 3220 271 
Q 2806 -91 2034 -91 
Q 1263 -91 848 271 
Q 434 634 434 1313 
Q 434 1759 690 2068 
Q 947 2378 1403 2484 
z
M 1172 3481 
Q 1172 3119 1398 2916 
Q 1625 2713 2034 2713 
Q 2441 2713 2670 2916 
Q 2900 3119 2900 3481 
Q 2900 3844 2670 4047 
Q 2441 4250 2034 4250 
Q 1625 4250 1398 4047 
Q 1172 3844 1172 3481 
z
" transform="scale(0.015625)"/>
       </defs>
       <use xlink:href="#DejaVuSans-38"/>
       <use xlink:href="#DejaVuSans-30" transform="translate(63.623047 0)"/>
      </g>
     </g>
    </g>
    <g id="ytick_6">
     <g id="line2d_12">
      <path d="M 48.90125 69.4 
L 395.972333 69.4 
" clip-path="url(#pcb2603ff06)" style="fill: none; stroke: #b0b0b0; stroke-opacity: 0.3; stroke-width: 0.8; stroke-linecap: square"/>
     </g>
     <g id="line2d_13">
      <g>
       <use xlink:href="#mdd2410c20c" x="48.90125" y="69.4" style="stroke: #000000; stroke-width: 0.8"/>
      </g>
     </g>
     <g id="text_7">
      <!-- 100 -->
      <g transform="translate(22.81375 73.199219) scale(0.1 -0.1)">
       <defs>
        <path id="DejaVuSans-31" d="M 794 531 
L 1825 531 
L 1825 4091 
L 703 3866 
L 703 4441 
L 1819 4666 
L 2450 4666 
L 2450 531 
L 3481 531 
L 3481 0 
L 794 0 
L 794 531 
z
" transform="scale(0.015625)"/>
       </defs>
       <use xlink:href="#DejaVuSans-31"/>
       <use xlink:href="#DejaVuSans-30" transform="translate(63.623047 0)"/>
       <use xlink:href="#DejaVuSans-30" transform="translate(127.246094 0)"/>
      </g>
     </g>
    </g>
    <g id="text_8">
     <!-- Frames Per Second (FPS) -->
     <g transform="translate(16.318125 293.206875) rotate(-90) scale(0.12 -0.12)">
      <defs>
       <path id="DejaVuSans-Bold-46" d="M 588 4666 
L 3834 4666 
L 3834 3756 
L 1791 3756 
L 1791 2888 
L 3713 2888 
L 3713 1978 
L 1791 1978 
L 1791 0 
L 588 0 
L 588 4666 
z
" transform="scale(0.015625)"/>
       <path id="DejaVuSans-Bold-72" d="M 3138 2547 
Q 2991 2616 2845 2648 
Q 2700 2681 2553 2681 
Q 2122 2681 1889 2404 
Q 1656 2128 1656 1613 
L 1656 0 
L 538 0 
L 538 3500 
L 1656 3500 
L 1656 2925 
Q 1872 3269 2151 3426 
Q 2431 3584 2822 3584 
Q 2878 3584 2943 3579 
Q 3009 3575 3134 3559 
L 3138 2547 
z
" transform="scale(0.015625)"/>
       <path id="DejaVuSans-Bold-61" d="M 2106 1575 
Q 1756 1575 1579 1456 
Q 1403 1338 1403 1106 
Q 1403 894 1545 773 
Q 1688 653 1941 653 
Q 2256 653 2472 879 
Q 2688 1106 2688 1447 
L 2688 1575 
L 2106 1575 
z
M 3816 1997 
L 3816 0 
L 2688 0 
L 2688 519 
Q 2463 200 2181 54 
Q 1900 -91 1497 -91 
Q 953 -91 614 226 
Q 275 544 275 1050 
Q 275 1666 698 1953 
Q 1122 2241 2028 2241 
L 2688 2241 
L 2688 2328 
Q 2688 2594 2478 2717 
Q 2269 2841 1825 2841 
Q 1466 2841 1156 2769 
Q 847 2697 581 2553 
L 581 3406 
Q 941 3494 1303 3539 
Q 1666 3584 2028 3584 
Q 2975 3584 3395 3211 
Q 3816 2838 3816 1997 
z
" transform="scale(0.015625)"/>
       <path id="DejaVuSans-Bold-6d" d="M 3781 2919 
Q 3994 3244 4286 3414 
Q 4578 3584 4928 3584 
Q 5531 3584 5847 3212 
Q 6163 2841 6163 2131 
L 6163 0 
L 5038 0 
L 5038 1825 
Q 5041 1866 5042 1909 
Q 5044 1953 5044 2034 
Q 5044 2406 4934 2573 
Q 4825 2741 4581 2741 
Q 4263 2741 4089 2478 
Q 3916 2216 3909 1719 
L 3909 0 
L 2784 0 
L 2784 1825 
Q 2784 2406 2684 2573 
Q 2584 2741 2328 2741 
Q 2006 2741 1831 2477 
Q 1656 2213 1656 1722 
L 1656 0 
L 531 0 
L 531 3500 
L 1656 3500 
L 1656 2988 
Q 1863 3284 2130 3434 
Q 2397 3584 2719 3584 
Q 3081 3584 3359 3409 
Q 3638 3234 3781 2919 
z
" transform="scale(0.015625)"/>
       <path id="DejaVuSans-Bold-65" d="M 4031 1759 
L 4031 1441 
L 1416 1441 
Q 1456 1047 1700 850 
Q 1944 653 2381 653 
Q 2734 653 3104 758 
Q 3475 863 3866 1075 
L 3866 213 
Q 3469 63 3072 -14 
Q 2675 -91 2278 -91 
Q 1328 -91 801 392 
Q 275 875 275 1747 
Q 275 2603 792 3093 
Q 1309 3584 2216 3584 
Q 3041 3584 3536 3087 
Q 4031 2591 4031 1759 
z
M 2881 2131 
Q 2881 2450 2695 2645 
Q 2509 2841 2209 2841 
Q 1884 2841 1681 2658 
Q 1478 2475 1428 2131 
L 2881 2131 
z
" transform="scale(0.015625)"/>
       <path id="DejaVuSans-Bold-73" d="M 3272 3391 
L 3272 2541 
Q 2913 2691 2578 2766 
Q 2244 2841 1947 2841 
Q 1628 2841 1473 2761 
Q 1319 2681 1319 2516 
Q 1319 2381 1436 2309 
Q 1553 2238 1856 2203 
L 2053 2175 
Q 2913 2066 3209 1816 
Q 3506 1566 3506 1031 
Q 3506 472 3093 190 
Q 2681 -91 1863 -91 
Q 1516 -91 1145 -36 
Q 775 19 384 128 
L 384 978 
Q 719 816 1070 734 
Q 1422 653 1784 653 
Q 2113 653 2278 743 
Q 2444 834 2444 1013 
Q 2444 1163 2330 1236 
Q 2216 1309 1875 1350 
L 1678 1375 
Q 931 1469 631 1722 
Q 331 1975 331 2491 
Q 331 3047 712 3315 
Q 1094 3584 1881 3584 
Q 2191 3584 2531 3537 
Q 2872 3491 3272 3391 
z
" transform="scale(0.015625)"/>
       <path id="DejaVuSans-Bold-20" transform="scale(0.015625)"/>
       <path id="DejaVuSans-Bold-50" d="M 588 4666 
L 2584 4666 
Q 3475 4666 3951 4270 
Q 4428 3875 4428 3144 
Q 4428 2409 3951 2014 
Q 3475 1619 2584 1619 
L 1791 1619 
L 1791 0 
L 588 0 
L 588 4666 
z
M 1791 3794 
L 1791 2491 
L 2456 2491 
Q 2806 2491 2997 2661 
Q 3188 2831 3188 3144 
Q 3188 3456 2997 3625 
Q 2806 3794 2456 3794 
L 1791 3794 
z
" transform="scale(0.015625)"/>
       <path id="DejaVuSans-Bold-53" d="M 3834 4519 
L 3834 3531 
Q 3450 3703 3084 3790 
Q 2719 3878 2394 3878 
Q 1963 3878 1756 3759 
Q 1550 3641 1550 3391 
Q 1550 3203 1689 3098 
Q 1828 2994 2194 2919 
L 2706 2816 
Q 3484 2659 3812 2340 
Q 4141 2022 4141 1434 
Q 4141 663 3683 286 
Q 3225 -91 2284 -91 
Q 1841 -91 1394 -6 
Q 947 78 500 244 
L 500 1259 
Q 947 1022 1364 901 
Q 1781 781 2169 781 
Q 2563 781 2772 912 
Q 2981 1044 2981 1288 
Q 2981 1506 2839 1625 
Q 2697 1744 2272 1838 
L 1806 1941 
Q 1106 2091 782 2419 
Q 459 2747 459 3303 
Q 459 4000 909 4375 
Q 1359 4750 2203 4750 
Q 2588 4750 2994 4692 
Q 3400 4634 3834 4519 
z
" transform="scale(0.015625)"/>
       <path id="DejaVuSans-Bold-63" d="M 3366 3391 
L 3366 2478 
Q 3138 2634 2908 2709 
Q 2678 2784 2431 2784 
Q 1963 2784 1702 2511 
Q 1441 2238 1441 1747 
Q 1441 1256 1702 982 
Q 1963 709 2431 709 
Q 2694 709 2930 787 
Q 3166 866 3366 1019 
L 3366 103 
Q 3103 6 2833 -42 
Q 2563 -91 2291 -91 
Q 1344 -91 809 395 
Q 275 881 275 1747 
Q 275 2613 809 3098 
Q 1344 3584 2291 3584 
Q 2566 3584 2833 3536 
Q 3100 3488 3366 3391 
z
" transform="scale(0.015625)"/>
       <path id="DejaVuSans-Bold-6f" d="M 2203 2784 
Q 1831 2784 1636 2517 
Q 1441 2250 1441 1747 
Q 1441 1244 1636 976 
Q 1831 709 2203 709 
Q 2569 709 2762 976 
Q 2956 1244 2956 1747 
Q 2956 2250 2762 2517 
Q 2569 2784 2203 2784 
z
M 2203 3584 
Q 3106 3584 3614 3096 
Q 4122 2609 4122 1747 
Q 4122 884 3614 396 
Q 3106 -91 2203 -91 
Q 1297 -91 786 396 
Q 275 884 275 1747 
Q 275 2609 786 3096 
Q 1297 3584 2203 3584 
z
" transform="scale(0.015625)"/>
       <path id="DejaVuSans-Bold-6e" d="M 4056 2131 
L 4056 0 
L 2931 0 
L 2931 347 
L 2931 1631 
Q 2931 2084 2911 2256 
Q 2891 2428 2841 2509 
Q 2775 2619 2662 2680 
Q 2550 2741 2406 2741 
Q 2056 2741 1856 2470 
Q 1656 2200 1656 1722 
L 1656 0 
L 538 0 
L 538 3500 
L 1656 3500 
L 1656 2988 
Q 1909 3294 2193 3439 
Q 2478 3584 2822 3584 
Q 3428 3584 3742 3212 
Q 4056 2841 4056 2131 
z
" transform="scale(0.015625)"/>
       <path id="DejaVuSans-Bold-64" d="M 2919 2988 
L 2919 4863 
L 4044 4863 
L 4044 0 
L 2919 0 
L 2919 506 
Q 2688 197 2409 53 
Q 2131 -91 1766 -91 
Q 1119 -91 703 423 
Q 288 938 288 1747 
Q 288 2556 703 3070 
Q 1119 3584 1766 3584 
Q 2128 3584 2408 3439 
Q 2688 3294 2919 2988 
z
M 2181 722 
Q 2541 722 2730 984 
Q 2919 1247 2919 1747 
Q 2919 2247 2730 2509 
Q 2541 2772 2181 2772 
Q 1825 2772 1636 2509 
Q 1447 2247 1447 1747 
Q 1447 1247 1636 984 
Q 1825 722 2181 722 
z
" transform="scale(0.015625)"/>
       <path id="DejaVuSans-Bold-28" d="M 2413 -844 
L 1484 -844 
Q 1006 -72 778 623 
Q 550 1319 550 2003 
Q 550 2688 779 3389 
Q 1009 4091 1484 4856 
L 2413 4856 
Q 2013 4116 1813 3408 
Q 1613 2700 1613 2009 
Q 1613 1319 1811 609 
Q 2009 -100 2413 -844 
z
" transform="scale(0.015625)"/>
       <path id="DejaVuSans-Bold-29" d="M 513 -844 
Q 913 -100 1113 609 
Q 1313 1319 1313 2009 
Q 1313 2700 1113 3408 
Q 913 4116 513 4856 
L 1441 4856 
Q 1916 4091 2145 3389 
Q 2375 2688 2375 2003 
Q 2375 1319 2147 623 
Q 1919 -72 1441 -844 
L 513 -844 
z
" transform="scale(0.015625)"/>
      </defs>
      <use xlink:href="#DejaVuSans-Bold-46"/>
      <use xlink:href="#DejaVuSans-Bold-72" transform="translate(61.935547 0)"/>
      <use xlink:href="#DejaVuSans-Bold-61" transform="translate(111.251953 0)"/>
      <use xlink:href="#DejaVuSans-Bold-6d" transform="translate(178.732422 0)"/>
      <use xlink:href="#DejaVuSans-Bold-65" transform="translate(282.931641 0)"/>
      <use xlink:href="#DejaVuSans-Bold-73" transform="translate(350.753906 0)"/>
      <use xlink:href="#DejaVuSans-Bold-20" transform="translate(410.275391 0)"/>
      <use xlink:href="#DejaVuSans-Bold-50" transform="translate(445.089844 0)"/>
      <use xlink:href="#DejaVuSans-Bold-65" transform="translate(518.380859 0)"/>
      <use xlink:href="#DejaVuSans-Bold-72" transform="translate(586.203125 0)"/>
      <use xlink:href="#DejaVuSans-Bold-20" transform="translate(635.519531 0)"/>
      <use xlink:href="#DejaVuSans-Bold-53" transform="translate(670.333984 0)"/>
      <use xlink:href="#DejaVuSans-Bold-65" transform="translate(742.355469 0)"/>
      <use xlink:href="#DejaVuSans-Bold-63" transform="translate(810.177734 0)"/>
      <use xlink:href="#DejaVuSans-Bold-6f" transform="translate(869.455078 0)"/>
      <use xlink:href="#DejaVuSans-Bold-6e" transform="translate(938.15625 0)"/>
      <use xlink:href="#DejaVuSans-Bold-64" transform="translate(1009.347656 0)"/>
      <use xlink:href="#DejaVuSans-Bold-20" transform="translate(1080.929688 0)"/>
      <use xlink:href="#DejaVuSans-Bold-28" transform="translate(1115.744141 0)"/>
      <use xlink:href="#DejaVuSans-Bold-46" transform="translate(1161.447266 0)"/>
      <use xlink:href="#DejaVuSans-Bold-50" transform="translate(1229.757812 0)"/>
      <use xlink:href="#DejaVuSans-Bold-53" transform="translate(1303.048828 0)"/>
      <use xlink:href="#DejaVuSans-Bold-29" transform="translate(1375.070312 0)"/>
     </g>
    </g>
   </g>
   <g id="patch_5">
    <path d="M 48.90125 346.52 
L 48.90125 69.4 
" style="fill: none; stroke: #000000; stroke-width: 0.8; stroke-linejoin: miter; stroke-linecap: square"/>
   </g>
   <g id="patch_6">
    <path d="M 48.90125 346.52 
L 395.972333 346.52 
" style="fill: none; stroke: #000000; stroke-width: 0.8; stroke-linejoin: miter; stroke-linecap: square"/>
   </g>
   <g id="text_9">
    <!-- 49.7 -->
    <g transform="translate(128.753875 203.441399) scale(0.12 -0.12)">
     <defs>
      <path id="DejaVuSans-Bold-34" d="M 2356 3675 
L 1038 1722 
L 2356 1722 
L 2356 3675 
z
M 2156 4666 
L 3494 4666 
L 3494 1722 
L 4159 1722 
L 4159 850 
L 3494 850 
L 3494 0 
L 2356 0 
L 2356 850 
L 288 850 
L 288 1881 
L 2156 4666 
z
" transform="scale(0.015625)"/>
      <path id="DejaVuSans-Bold-39" d="M 641 103 
L 641 966 
Q 928 831 1190 764 
Q 1453 697 1709 697 
Q 2247 697 2547 995 
Q 2847 1294 2900 1881 
Q 2688 1725 2447 1647 
Q 2206 1569 1925 1569 
Q 1209 1569 770 1986 
Q 331 2403 331 3084 
Q 331 3838 820 4291 
Q 1309 4744 2131 4744 
Q 3044 4744 3544 4128 
Q 4044 3513 4044 2388 
Q 4044 1231 3459 570 
Q 2875 -91 1856 -91 
Q 1528 -91 1228 -42 
Q 928 6 641 103 
z
M 2125 2350 
Q 2441 2350 2600 2554 
Q 2759 2759 2759 3169 
Q 2759 3575 2600 3781 
Q 2441 3988 2125 3988 
Q 1809 3988 1650 3781 
Q 1491 3575 1491 3169 
Q 1491 2759 1650 2554 
Q 1809 2350 2125 2350 
z
" transform="scale(0.015625)"/>
      <path id="DejaVuSans-Bold-2e" d="M 653 1209 
L 1778 1209 
L 1778 0 
L 653 0 
L 653 1209 
z
" transform="scale(0.015625)"/>
      <path id="DejaVuSans-Bold-37" d="M 428 4666 
L 3944 4666 
L 3944 3988 
L 2125 0 
L 953 0 
L 2675 3781 
L 428 3781 
L 428 4666 
z
" transform="scale(0.015625)"/>
     </defs>
     <use xlink:href="#DejaVuSans-Bold-34"/>
     <use xlink:href="#DejaVuSans-Bold-39" transform="translate(69.580078 0)"/>
     <use xlink:href="#DejaVuSans-Bold-2e" transform="translate(139.160156 0)"/>
     <use xlink:href="#DejaVuSans-Bold-37" transform="translate(177.148438 0)"/>
    </g>
   </g>
   <g id="text_10">
    <!-- 84.3 -->
    <g transform="translate(286.513458 107.530167) scale(0.12 -0.12)">
     <defs>
      <path id="DejaVuSans-Bold-38" d="M 2228 2088 
Q 1891 2088 1709 1903 
Q 1528 1719 1528 1375 
Q 1528 1031 1709 848 
Q 1891 666 2228 666 
Q 2563 666 2741 848 
Q 2919 1031 2919 1375 
Q 2919 1722 2741 1905 
Q 2563 2088 2228 2088 
z
M 1350 2484 
Q 925 2613 709 2878 
Q 494 3144 494 3541 
Q 494 4131 934 4440 
Q 1375 4750 2228 4750 
Q 3075 4750 3515 4442 
Q 3956 4134 3956 3541 
Q 3956 3144 3739 2878 
Q 3522 2613 3097 2484 
Q 3572 2353 3814 2058 
Q 4056 1763 4056 1313 
Q 4056 619 3595 264 
Q 3134 -91 2228 -91 
Q 1319 -91 855 264 
Q 391 619 391 1313 
Q 391 1763 633 2058 
Q 875 2353 1350 2484 
z
M 1631 3419 
Q 1631 3141 1786 2991 
Q 1941 2841 2228 2841 
Q 2509 2841 2662 2991 
Q 2816 3141 2816 3419 
Q 2816 3697 2662 3845 
Q 2509 3994 2228 3994 
Q 1941 3994 1786 3844 
Q 1631 3694 1631 3419 
z
" transform="scale(0.015625)"/>
      <path id="DejaVuSans-Bold-33" d="M 2981 2516 
Q 3453 2394 3698 2092 
Q 3944 1791 3944 1325 
Q 3944 631 3412 270 
Q 2881 -91 1863 -91 
Q 1503 -91 1142 -33 
Q 781 25 428 141 
L 428 1069 
Q 766 900 1098 814 
Q 1431 728 1753 728 
Q 2231 728 2486 893 
Q 2741 1059 2741 1369 
Q 2741 1688 2480 1852 
Q 2219 2016 1709 2016 
L 1228 2016 
L 1228 2791 
L 1734 2791 
Q 2188 2791 2409 2933 
Q 2631 3075 2631 3366 
Q 2631 3634 2415 3781 
Q 2200 3928 1806 3928 
Q 1516 3928 1219 3862 
Q 922 3797 628 3669 
L 628 4550 
Q 984 4650 1334 4700 
Q 1684 4750 2022 4750 
Q 2931 4750 3382 4451 
Q 3834 4153 3834 3553 
Q 3834 3144 3618 2883 
Q 3403 2622 2981 2516 
z
" transform="scale(0.015625)"/>
     </defs>
     <use xlink:href="#DejaVuSans-Bold-38"/>
     <use xlink:href="#DejaVuSans-Bold-34" transform="translate(69.580078 0)"/>
     <use xlink:href="#DejaVuSans-Bold-2e" transform="translate(139.160156 0)"/>
     <use xlink:href="#DejaVuSans-Bold-33" transform="translate(177.148438 0)"/>
    </g>
   </g>
   <g id="patch_7">
    <path d="M 353.68728 92.135749 
Q 289.049378 102.310945 226.620344 112.138424 
" style="fill: none; stroke: #27ae60; stroke-width: 2; stroke-linecap: round"/>
    <path d="M 232.587632 114.033543 
L 226.620344 112.138424 
L 231.716812 108.501665 
" style="fill: none; stroke: #27ae60; stroke-width: 2; stroke-linecap: round"/>
   </g>
   <g id="text_11">
    <!-- +69.6% -->
    <g style="fill: #27ae60" transform="translate(357.659292 90.627392) scale(0.14 -0.14)">
     <defs>
      <path id="DejaVuSans-Bold-2b" d="M 3053 4013 
L 3053 2375 
L 4684 2375 
L 4684 1638 
L 3053 1638 
L 3053 0 
L 2309 0 
L 2309 1638 
L 678 1638 
L 678 2375 
L 2309 2375 
L 2309 4013 
L 3053 4013 
z
" transform="scale(0.015625)"/>
      <path id="DejaVuSans-Bold-36" d="M 2316 2303 
Q 2000 2303 1842 2098 
Q 1684 1894 1684 1484 
Q 1684 1075 1842 870 
Q 2000 666 2316 666 
Q 2634 666 2792 870 
Q 2950 1075 2950 1484 
Q 2950 1894 2792 2098 
Q 2634 2303 2316 2303 
z
M 3803 4544 
L 3803 3681 
Q 3506 3822 3243 3889 
Q 2981 3956 2731 3956 
Q 2194 3956 1894 3657 
Q 1594 3359 1544 2772 
Q 1750 2925 1990 3001 
Q 2231 3078 2516 3078 
Q 3231 3078 3670 2659 
Q 4109 2241 4109 1563 
Q 4109 813 3618 361 
Q 3128 -91 2303 -91 
Q 1394 -91 895 523 
Q 397 1138 397 2266 
Q 397 3422 980 4083 
Q 1563 4744 2578 4744 
Q 2900 4744 3203 4694 
Q 3506 4644 3803 4544 
z
" transform="scale(0.015625)"/>
      <path id="DejaVuSans-Bold-25" d="M 4959 1925 
Q 4738 1925 4616 1733 
Q 4494 1541 4494 1184 
Q 4494 825 4614 633 
Q 4734 441 4959 441 
Q 5184 441 5303 633 
Q 5422 825 5422 1184 
Q 5422 1541 5301 1733 
Q 5181 1925 4959 1925 
z
M 4959 2450 
Q 5541 2450 5875 2112 
Q 6209 1775 6209 1184 
Q 6209 594 5875 251 
Q 5541 -91 4959 -91 
Q 4378 -91 4042 251 
Q 3706 594 3706 1184 
Q 3706 1772 4042 2111 
Q 4378 2450 4959 2450 
z
M 2094 -91 
L 1403 -91 
L 4319 4750 
L 5013 4750 
L 2094 -91 
z
M 1453 4750 
Q 2034 4750 2367 4411 
Q 2700 4072 2700 3481 
Q 2700 2891 2367 2550 
Q 2034 2209 1453 2209 
Q 872 2209 539 2550 
Q 206 2891 206 3481 
Q 206 4072 539 4411 
Q 872 4750 1453 4750 
z
M 1453 4225 
Q 1228 4225 1106 4031 
Q 984 3838 984 3481 
Q 984 3122 1106 2926 
Q 1228 2731 1453 2731 
Q 1678 2731 1798 2926 
Q 1919 3122 1919 3481 
Q 1919 3838 1797 4031 
Q 1675 4225 1453 4225 
z
" transform="scale(0.015625)"/>
     </defs>
     <use xlink:href="#DejaVuSans-Bold-2b"/>
     <use xlink:href="#DejaVuSans-Bold-36" transform="translate(83.789062 0)"/>
     <use xlink:href="#DejaVuSans-Bold-39" transform="translate(153.369141 0)"/>
     <use xlink:href="#DejaVuSans-Bold-2e" transform="translate(222.949219 0)"/>
     <use xlink:href="#DejaVuSans-Bold-36" transform="translate(260.9375 0)"/>
     <use xlink:href="#DejaVuSans-Bold-25" transform="translate(330.517578 0)"/>
    </g>
   </g>
   <g id="text_12">
    <!-- Throughput Comparison -->
    <g transform="translate(133.704682 59.4) scale(0.13 -0.13)">
     <defs>
      <path id="DejaVuSans-Bold-54" d="M 31 4666 
L 4331 4666 
L 4331 3756 
L 2784 3756 
L 2784 0 
L 1581 0 
L 1581 3756 
L 31 3756 
L 31 4666 
z
" transform="scale(0.015625)"/>
      <path id="DejaVuSans-Bold-68" d="M 4056 2131 
L 4056 0 
L 2931 0 
L 2931 347 
L 2931 1625 
Q 2931 2084 2911 2256 
Q 2891 2428 2841 2509 
Q 2775 2619 2662 2680 
Q 2550 2741 2406 2741 
Q 2056 2741 1856 2470 
Q 1656 2200 1656 1722 
L 1656 0 
L 538 0 
L 538 4863 
L 1656 4863 
L 1656 2988 
Q 1909 3294 2193 3439 
Q 2478 3584 2822 3584 
Q 3428 3584 3742 3212 
Q 4056 2841 4056 2131 
z
" transform="scale(0.015625)"/>
      <path id="DejaVuSans-Bold-75" d="M 500 1363 
L 500 3500 
L 1625 3500 
L 1625 3150 
Q 1625 2866 1622 2436 
Q 1619 2006 1619 1863 
Q 1619 1441 1641 1255 
Q 1663 1069 1716 984 
Q 1784 875 1895 815 
Q 2006 756 2150 756 
Q 2500 756 2700 1025 
Q 2900 1294 2900 1772 
L 2900 3500 
L 4019 3500 
L 4019 0 
L 2900 0 
L 2900 506 
Q 2647 200 2364 54 
Q 2081 -91 1741 -91 
Q 1134 -91 817 281 
Q 500 653 500 1363 
z
" transform="scale(0.015625)"/>
      <path id="DejaVuSans-Bold-67" d="M 2919 594 
Q 2688 288 2409 144 
Q 2131 0 1766 0 
Q 1125 0 706 504 
Q 288 1009 288 1791 
Q 288 2575 706 3076 
Q 1125 3578 1766 3578 
Q 2131 3578 2409 3434 
Q 2688 3291 2919 2981 
L 2919 3500 
L 4044 3500 
L 4044 353 
Q 4044 -491 3511 -936 
Q 2978 -1381 1966 -1381 
Q 1638 -1381 1331 -1331 
Q 1025 -1281 716 -1178 
L 716 -306 
Q 1009 -475 1290 -558 
Q 1572 -641 1856 -641 
Q 2406 -641 2662 -400 
Q 2919 -159 2919 353 
L 2919 594 
z
M 2181 2772 
Q 1834 2772 1640 2515 
Q 1447 2259 1447 1791 
Q 1447 1309 1634 1061 
Q 1822 813 2181 813 
Q 2531 813 2725 1069 
Q 2919 1325 2919 1791 
Q 2919 2259 2725 2515 
Q 2531 2772 2181 2772 
z
" transform="scale(0.015625)"/>
      <path id="DejaVuSans-Bold-70" d="M 1656 506 
L 1656 -1331 
L 538 -1331 
L 538 3500 
L 1656 3500 
L 1656 2988 
Q 1888 3294 2169 3439 
Q 2450 3584 2816 3584 
Q 3463 3584 3878 3070 
Q 4294 2556 4294 1747 
Q 4294 938 3878 423 
Q 3463 -91 2816 -91 
Q 2450 -91 2169 54 
Q 1888 200 1656 506 
z
M 2400 2772 
Q 2041 2772 1848 2508 
Q 1656 2244 1656 1747 
Q 1656 1250 1848 986 
Q 2041 722 2400 722 
Q 2759 722 2948 984 
Q 3138 1247 3138 1747 
Q 3138 2247 2948 2509 
Q 2759 2772 2400 2772 
z
" transform="scale(0.015625)"/>
      <path id="DejaVuSans-Bold-74" d="M 1759 4494 
L 1759 3500 
L 2913 3500 
L 2913 2700 
L 1759 2700 
L 1759 1216 
Q 1759 972 1856 886 
Q 1953 800 2241 800 
L 2816 800 
L 2816 0 
L 1856 0 
Q 1194 0 917 276 
Q 641 553 641 1216 
L 641 2700 
L 84 2700 
L 84 3500 
L 641 3500 
L 641 4494 
L 1759 4494 
z
" transform="scale(0.015625)"/>
      <path id="DejaVuSans-Bold-43" d="M 4288 256 
Q 3956 84 3597 -3 
Q 3238 -91 2847 -91 
Q 1681 -91 1000 561 
Q 319 1213 319 2328 
Q 319 3447 1000 4098 
Q 1681 4750 2847 4750 
Q 3238 4750 3597 4662 
Q 3956 4575 4288 4403 
L 4288 3438 
Q 3953 3666 3628 3772 
Q 3303 3878 2944 3878 
Q 2300 3878 1931 3465 
Q 1563 3053 1563 2328 
Q 1563 1606 1931 1193 
Q 2300 781 2944 781 
Q 3303 781 3628 887 
Q 3953 994 4288 1222 
L 4288 256 
z
" transform="scale(0.015625)"/>
      <path id="DejaVuSans-Bold-69" d="M 538 3500 
L 1656 3500 
L 1656 0 
L 538 0 
L 538 3500 
z
M 538 4863 
L 1656 4863 
L 1656 3950 
L 538 3950 
L 538 4863 
z
" transform="scale(0.015625)"/>
     </defs>
     <use xlink:href="#DejaVuSans-Bold-54"/>
     <use xlink:href="#DejaVuSans-Bold-68" transform="translate(68.212891 0)"/>
     <use xlink:href="#DejaVuSans-Bold-72" transform="translate(139.404297 0)"/>
     <use xlink:href="#DejaVuSans-Bold-6f" transform="translate(188.720703 0)"/>
     <use xlink:href="#DejaVuSans-Bold-75" transform="translate(257.421875 0)"/>
     <use xlink:href="#DejaVuSans-Bold-67" transform="translate(328.613281 0)"/>
     <use xlink:href="#DejaVuSans-Bold-68" transform="translate(400.195312 0)"/>
     <use xlink:href="#DejaVuSans-Bold-70" transform="translate(471.386719 0)"/>
     <use xlink:href="#DejaVuSans-Bold-75" transform="translate(542.96875 0)"/>
     <use xlink:href="#DejaVuSans-Bold-74" transform="translate(614.160156 0)"/>
     <use xlink:href="#DejaVuSans-Bold-20" transform="translate(661.962891 0)"/>
     <use xlink:href="#DejaVuSans-Bold-43" transform="translate(696.777344 0)"/>
     <use xlink:href="#DejaVuSans-Bold-6f" transform="translate(770.166016 0)"/>
     <use xlink:href="#DejaVuSans-Bold-6d" transform="translate(838.867188 0)"/>
     <use xlink:href="#DejaVuSans-Bold-70" transform="translate(943.066406 0)"/>
     <use xlink:href="#DejaVuSans-Bold-61" transform="translate(1014.648438 0)"/>
     <use xlink:href="#DejaVuSans-Bold-72" transform="translate(1082.128906 0)"/>
     <use xlink:href="#DejaVuSans-Bold-69" transform="translate(1131.445312 0)"/>
     <use xlink:href="#DejaVuSans-Bold-73" transform="translate(1165.722656 0)"/>
     <use xlink:href="#DejaVuSans-Bold-6f" transform="translate(1225.244141 0)"/>
     <use xlink:href="#DejaVuSans-Bold-6e" transform="translate(1293.945312 0)"/>
    </g>
   </g>
   <g id="legend_1">
    <g id="patch_8">
     <path d="M 55.90125 106.75625 
L 166.27625 106.75625 
Q 168.27625 106.75625 168.27625 104.75625 
L 168.27625 76.4 
Q 168.27625 74.4 166.27625 74.4 
L 55.90125 74.4 
Q 53.90125 74.4 53.90125 76.4 
L 53.90125 104.75625 
Q 53.90125 106.75625 55.90125 106.75625 
z
" style="fill: #ffffff; opacity: 0.8; stroke: #cccccc; stroke-linejoin: miter"/>
    </g>
    <g id="patch_9">
     <path d="M 57.90125 85.998437 
L 77.90125 85.998437 
L 77.90125 78.998437 
L 57.90125 78.998437 
z
" style="fill: #e74c3c; stroke: #000000; stroke-width: 1.2; stroke-linejoin: miter"/>
    </g>
    <g id="text_13">
     <!-- Jetson Only -->
     <g transform="translate(85.90125 85.998437) scale(0.1 -0.1)">
      <defs>
       <path id="DejaVuSans-4a" d="M 628 4666 
L 1259 4666 
L 1259 325 
Q 1259 -519 939 -900 
Q 619 -1281 -91 -1281 
L -331 -1281 
L -331 -750 
L -134 -750 
Q 284 -750 456 -515 
Q 628 -281 628 325 
L 628 4666 
z
" transform="scale(0.015625)"/>
       <path id="DejaVuSans-65" d="M 3597 1894 
L 3597 1613 
L 953 1613 
Q 991 1019 1311 708 
Q 1631 397 2203 397 
Q 2534 397 2845 478 
Q 3156 559 3463 722 
L 3463 178 
Q 3153 47 2828 -22 
Q 2503 -91 2169 -91 
Q 1331 -91 842 396 
Q 353 884 353 1716 
Q 353 2575 817 3079 
Q 1281 3584 2069 3584 
Q 2775 3584 3186 3129 
Q 3597 2675 3597 1894 
z
M 3022 2063 
Q 3016 2534 2758 2815 
Q 2500 3097 2075 3097 
Q 1594 3097 1305 2825 
Q 1016 2553 972 2059 
L 3022 2063 
z
" transform="scale(0.015625)"/>
       <path id="DejaVuSans-74" d="M 1172 4494 
L 1172 3500 
L 2356 3500 
L 2356 3053 
L 1172 3053 
L 1172 1153 
Q 1172 725 1289 603 
Q 1406 481 1766 481 
L 2356 481 
L 2356 0 
L 1766 0 
Q 1100 0 847 248 
Q 594 497 594 1153 
L 594 3053 
L 172 3053 
L 172 3500 
L 594 3500 
L 594 4494 
L 1172 4494 
z
" transform="scale(0.015625)"/>
       <path id="DejaVuSans-73" d="M 2834 3397 
L 2834 2853 
Q 2591 2978 2328 3040 
Q 2066 3103 1784 3103 
Q 1356 3103 1142 2972 
Q 928 2841 928 2578 
Q 928 2378 1081 2264 
Q 1234 2150 1697 2047 
L 1894 2003 
Q 2506 1872 2764 1633 
Q 3022 1394 3022 966 
Q 3022 478 2636 193 
Q 2250 -91 1575 -91 
Q 1294 -91 989 -36 
Q 684 19 347 128 
L 347 722 
Q 666 556 975 473 
Q 1284 391 1588 391 
Q 1994 391 2212 530 
Q 2431 669 2431 922 
Q 2431 1156 2273 1281 
Q 2116 1406 1581 1522 
L 1381 1569 
Q 847 1681 609 1914 
Q 372 2147 372 2553 
Q 372 3047 722 3315 
Q 1072 3584 1716 3584 
Q 2034 3584 2315 3537 
Q 2597 3491 2834 3397 
z
" transform="scale(0.015625)"/>
       <path id="DejaVuSans-6f" d="M 1959 3097 
Q 1497 3097 1228 2736 
Q 959 2375 959 1747 
Q 959 1119 1226 758 
Q 1494 397 1959 397 
Q 2419 397 2687 759 
Q 2956 1122 2956 1747 
Q 2956 2369 2687 2733 
Q 2419 3097 1959 3097 
z
M 1959 3584 
Q 2709 3584 3137 3096 
Q 3566 2609 3566 1747 
Q 3566 888 3137 398 
Q 2709 -91 1959 -91 
Q 1206 -91 779 398 
Q 353 888 353 1747 
Q 353 2609 779 3096 
Q 1206 3584 1959 3584 
z
" transform="scale(0.015625)"/>
       <path id="DejaVuSans-6e" d="M 3513 2113 
L 3513 0 
L 2938 0 
L 2938 2094 
Q 2938 2591 2744 2837 
Q 2550 3084 2163 3084 
Q 1697 3084 1428 2787 
Q 1159 2491 1159 1978 
L 1159 0 
L 581 0 
L 581 3500 
L 1159 3500 
L 1159 2956 
Q 1366 3272 1645 3428 
Q 1925 3584 2291 3584 
Q 2894 3584 3203 3211 
Q 3513 2838 3513 2113 
z
" transform="scale(0.015625)"/>
       <path id="DejaVuSans-20" transform="scale(0.015625)"/>
       <path id="DejaVuSans-4f" d="M 2522 4238 
Q 1834 4238 1429 3725 
Q 1025 3213 1025 2328 
Q 1025 1447 1429 934 
Q 1834 422 2522 422 
Q 3209 422 3611 934 
Q 4013 1447 4013 2328 
Q 4013 3213 3611 3725 
Q 3209 4238 2522 4238 
z
M 2522 4750 
Q 3503 4750 4090 4092 
Q 4678 3434 4678 2328 
Q 4678 1225 4090 567 
Q 3503 -91 2522 -91 
Q 1538 -91 948 565 
Q 359 1222 359 2328 
Q 359 3434 948 4092 
Q 1538 4750 2522 4750 
z
" transform="scale(0.015625)"/>
       <path id="DejaVuSans-6c" d="M 603 4863 
L 1178 4863 
L 1178 0 
L 603 0 
L 603 4863 
z
" transform="scale(0.015625)"/>
       <path id="DejaVuSans-79" d="M 2059 -325 
Q 1816 -950 1584 -1140 
Q 1353 -1331 966 -1331 
L 506 -1331 
L 506 -850 
L 844 -850 
Q 1081 -850 1212 -737 
Q 1344 -625 1503 -206 
L 1606 56 
L 191 3500 
L 800 3500 
L 1894 763 
L 2988 3500 
L 3597 3500 
L 2059 -325 
z
" transform="scale(0.015625)"/>
      </defs>
      <use xlink:href="#DejaVuSans-4a"/>
      <use xlink:href="#DejaVuSans-65" transform="translate(29.492188 0)"/>
      <use xlink:href="#DejaVuSans-74" transform="translate(91.015625 0)"/>
      <use xlink:href="#DejaVuSans-73" transform="translate(130.224609 0)"/>
      <use xlink:href="#DejaVuSans-6f" transform="translate(182.324219 0)"/>
      <use xlink:href="#DejaVuSans-6e" transform="translate(243.505859 0)"/>
      <use xlink:href="#DejaVuSans-20" transform="translate(306.884766 0)"/>
      <use xlink:href="#DejaVuSans-4f" transform="translate(338.671875 0)"/>
      <use xlink:href="#DejaVuSans-6e" transform="translate(417.382812 0)"/>
      <use xlink:href="#DejaVuSans-6c" transform="translate(480.761719 0)"/>
      <use xlink:href="#DejaVuSans-79" transform="translate(508.544922 0)"/>
     </g>
    </g>
    <g id="patch_10">
     <path d="M 57.90125 100.676562 
L 77.90125 100.676562 
L 77.90125 93.676562 
L 57.90125 93.676562 
z
" style="fill: #27ae60; stroke: #000000; stroke-width: 1.2; stroke-linejoin: miter"/>
    </g>
    <g id="text_14">
     <!-- Jetson + Loihi 2 -->
     <g transform="translate(85.90125 100.676562) scale(0.1 -0.1)">
      <defs>
       <path id="DejaVuSans-2b" d="M 2944 4013 
L 2944 2272 
L 4684 2272 
L 4684 1741 
L 2944 1741 
L 2944 0 
L 2419 0 
L 2419 1741 
L 678 1741 
L 678 2272 
L 2419 2272 
L 2419 4013 
L 2944 4013 
z
" transform="scale(0.015625)"/>
       <path id="DejaVuSans-4c" d="M 628 4666 
L 1259 4666 
L 1259 531 
L 3531 531 
L 3531 0 
L 628 0 
L 628 4666 
z
" transform="scale(0.015625)"/>
       <path id="DejaVuSans-69" d="M 603 3500 
L 1178 3500 
L 1178 0 
L 603 0 
L 603 3500 
z
M 603 4863 
L 1178 4863 
L 1178 4134 
L 603 4134 
L 603 4863 
z
" transform="scale(0.015625)"/>
       <path id="DejaVuSans-68" d="M 3513 2113 
L 3513 0 
L 2938 0 
L 2938 2094 
Q 2938 2591 2744 2837 
Q 2550 3084 2163 3084 
Q 1697 3084 1428 2787 
Q 1159 2491 1159 1978 
L 1159 0 
L 581 0 
L 581 4863 
L 1159 4863 
L 1159 2956 
Q 1366 3272 1645 3428 
Q 1925 3584 2291 3584 
Q 2894 3584 3203 3211 
Q 3513 2838 3513 2113 
z
" transform="scale(0.015625)"/>
      </defs>
      <use xlink:href="#DejaVuSans-4a"/>
      <use xlink:href="#DejaVuSans-65" transform="translate(29.492188 0)"/>
      <use xlink:href="#DejaVuSans-74" transform="translate(91.015625 0)"/>
      <use xlink:href="#DejaVuSans-73" transform="translate(130.224609 0)"/>
      <use xlink:href="#DejaVuSans-6f" transform="translate(182.324219 0)"/>
      <use xlink:href="#DejaVuSans-6e" transform="translate(243.505859 0)"/>
      <use xlink:href="#DejaVuSans-20" transform="translate(306.884766 0)"/>
      <use xlink:href="#DejaVuSans-2b" transform="translate(338.671875 0)"/>
      <use xlink:href="#DejaVuSans-20" transform="translate(422.460938 0)"/>
      <use xlink:href="#DejaVuSans-4c" transform="translate(454.248047 0)"/>
      <use xlink:href="#DejaVuSans-6f" transform="translate(508.210938 0)"/>
      <use xlink:href="#DejaVuSans-69" transform="translate(569.392578 0)"/>
      <use xlink:href="#DejaVuSans-68" transform="translate(597.175781 0)"/>
      <use xlink:href="#DejaVuSans-69" transform="translate(660.554688 0)"/>
      <use xlink:href="#DejaVuSans-20" transform="translate(688.337891 0)"/>
      <use xlink:href="#DejaVuSans-32" transform="translate(720.125 0)"/>
     </g>
    </g>
   </g>
  </g>
  <g id="axes_2">
   <g id="patch_11">
    <path d="M 475.47875 346.52 
L 822.549833 346.52 
L 822.549833 69.4 
L 475.47875 69.4 
z
" style="fill: #ffffff"/>
   </g>
   <g id="patch_12">
    <path d="M 491.254708 346.52 
L 649.014292 346.52 
L 649.014292 178.557568 
L 491.254708 178.557568 
z
" clip-path="url(#p49f85d65f6)" style="fill: #e74c3c; stroke: #000000; stroke-width: 1.2; stroke-linejoin: miter"/>
   </g>
   <g id="patch_13">
    <path d="M 649.014292 346.52 
L 806.773875 346.52 
L 806.773875 126.708416 
L 649.014292 126.708416 
z
" clip-path="url(#p49f85d65f6)" style="fill: #27ae60; stroke: #000000; stroke-width: 1.2; stroke-linejoin: miter"/>
   </g>
   <g id="matplotlib.axis_3">
    <g id="xtick_2">
     <g id="line2d_14">
      <g>
       <use xlink:href="#m2e1f5e7c09" x="649.014292" y="346.52" style="stroke: #000000; stroke-width: 0.8"/>
      </g>
     </g>
     <g id="text_15">
      <!-- Efficiency -->
      <g transform="translate(624.853354 361.118437) scale(0.1 -0.1)">
       <defs>
        <path id="DejaVuSans-45" d="M 628 4666 
L 3578 4666 
L 3578 4134 
L 1259 4134 
L 1259 2753 
L 3481 2753 
L 3481 2222 
L 1259 2222 
L 1259 531 
L 3634 531 
L 3634 0 
L 628 0 
L 628 4666 
z
" transform="scale(0.015625)"/>
        <path id="DejaVuSans-66" d="M 2375 4863 
L 2375 4384 
L 1825 4384 
Q 1516 4384 1395 4259 
Q 1275 4134 1275 3809 
L 1275 3500 
L 2222 3500 
L 2222 3053 
L 1275 3053 
L 1275 0 
L 697 0 
L 697 3053 
L 147 3053 
L 147 3500 
L 697 3500 
L 697 3744 
Q 697 4328 969 4595 
Q 1241 4863 1831 4863 
L 2375 4863 
z
" transform="scale(0.015625)"/>
        <path id="DejaVuSans-63" d="M 3122 3366 
L 3122 2828 
Q 2878 2963 2633 3030 
Q 2388 3097 2138 3097 
Q 1578 3097 1268 2742 
Q 959 2388 959 1747 
Q 959 1106 1268 751 
Q 1578 397 2138 397 
Q 2388 397 2633 464 
Q 2878 531 3122 666 
L 3122 134 
Q 2881 22 2623 -34 
Q 2366 -91 2075 -91 
Q 1284 -91 818 406 
Q 353 903 353 1747 
Q 353 2603 823 3093 
Q 1294 3584 2113 3584 
Q 2378 3584 2631 3529 
Q 2884 3475 3122 3366 
z
" transform="scale(0.015625)"/>
       </defs>
       <use xlink:href="#DejaVuSans-45"/>
       <use xlink:href="#DejaVuSans-66" transform="translate(63.183594 0)"/>
       <use xlink:href="#DejaVuSans-66" transform="translate(98.388672 0)"/>
       <use xlink:href="#DejaVuSans-69" transform="translate(133.59375 0)"/>
       <use xlink:href="#DejaVuSans-63" transform="translate(161.376953 0)"/>
       <use xlink:href="#DejaVuSans-69" transform="translate(216.357422 0)"/>
       <use xlink:href="#DejaVuSans-65" transform="translate(244.140625 0)"/>
       <use xlink:href="#DejaVuSans-6e" transform="translate(305.664062 0)"/>
       <use xlink:href="#DejaVuSans-63" transform="translate(369.042969 0)"/>
       <use xlink:href="#DejaVuSans-79" transform="translate(424.023438 0)"/>
      </g>
     </g>
    </g>
   </g>
   <g id="matplotlib.axis_4">
    <g id="ytick_7">
     <g id="line2d_15">
      <path d="M 475.47875 346.52 
L 822.549833 346.52 
" clip-path="url(#p49f85d65f6)" style="fill: none; stroke: #b0b0b0; stroke-opacity: 0.3; stroke-width: 0.8; stroke-linecap: square"/>
     </g>
     <g id="line2d_16">
      <g>
       <use xlink:href="#mdd2410c20c" x="475.47875" y="346.52" style="stroke: #000000; stroke-width: 0.8"/>
      </g>
     </g>
     <g id="text_16">
      <!-- 0 -->
      <g transform="translate(462.11625 350.319219) scale(0.1 -0.1)">
       <use xlink:href="#DejaVuSans-30"/>
      </g>
     </g>
    </g>
    <g id="ytick_8">
     <g id="line2d_17">
      <path d="M 475.47875 291.096 
L 822.549833 291.096 
" clip-path="url(#p49f85d65f6)" style="fill: none; stroke: #b0b0b0; stroke-opacity: 0.3; stroke-width: 0.8; stroke-linecap: square"/>
     </g>
     <g id="line2d_18">
      <g>
       <use xlink:href="#mdd2410c20c" x="475.47875" y="291.096" style="stroke: #000000; stroke-width: 0.8"/>
      </g>
     </g>
     <g id="text_17">
      <!-- 20 -->
      <g transform="translate(455.75375 294.895219) scale(0.1 -0.1)">
       <use xlink:href="#DejaVuSans-32"/>
       <use xlink:href="#DejaVuSans-30" transform="translate(63.623047 0)"/>
      </g>
     </g>
    </g>
    <g id="ytick_9">
     <g id="line2d_19">
      <path d="M 475.47875 235.672 
L 822.549833 235.672 
" clip-path="url(#p49f85d65f6)" style="fill: none; stroke: #b0b0b0; stroke-opacity: 0.3; stroke-width: 0.8; stroke-linecap: square"/>
     </g>
     <g id="line2d_20">
      <g>
       <use xlink:href="#mdd2410c20c" x="475.47875" y="235.672" style="stroke: #000000; stroke-width: 0.8"/>
      </g>
     </g>
     <g id="text_18">
      <!-- 40 -->
      <g transform="translate(455.75375 239.471219) scale(0.1 -0.1)">
       <use xlink:href="#DejaVuSans-34"/>
       <use xlink:href="#DejaVuSans-30" transform="translate(63.623047 0)"/>
      </g>
     </g>
    </g>
    <g id="ytick_10">
     <g id="line2d_21">
      <path d="M 475.47875 180.248 
L 822.549833 180.248 
" clip-path="url(#p49f85d65f6)" style="fill: none; stroke: #b0b0b0; stroke-opacity: 0.3; stroke-width: 0.8; stroke-linecap: square"/>
     </g>
     <g id="line2d_22">
      <g>
       <use xlink:href="#mdd2410c20c" x="475.47875" y="180.248" style="stroke: #000000; stroke-width: 0.8"/>
      </g>
     </g>
     <g id="text_19">
      <!-- 60 -->
      <g transform="translate(455.75375 184.047219) scale(0.1 -0.1)">
       <use xlink:href="#DejaVuSans-36"/>
       <use xlink:href="#DejaVuSans-30" transform="translate(63.623047 0)"/>
      </g>
     </g>
    </g>
    <g id="ytick_11">
     <g id="line2d_23">
      <path d="M 475.47875 124.824 
L 822.549833 124.824 
" clip-path="url(#p49f85d65f6)" style="fill: none; stroke: #b0b0b0; stroke-opacity: 0.3; stroke-width: 0.8; stroke-linecap: square"/>
     </g>
     <g id="line2d_24">
      <g>
       <use xlink:href="#mdd2410c20c" x="475.47875" y="124.824" style="stroke: #000000; stroke-width: 0.8"/>
      </g>
     </g>
     <g id="text_20">
      <!-- 80 -->
      <g transform="translate(455.75375 128.623219) scale(0.1 -0.1)">
       <use xlink:href="#DejaVuSans-38"/>
       <use xlink:href="#DejaVuSans-30" transform="translate(63.623047 0)"/>
      </g>
     </g>
    </g>
    <g id="ytick_12">
     <g id="line2d_25">
      <path d="M 475.47875 69.4 
L 822.549833 69.4 
" clip-path="url(#p49f85d65f6)" style="fill: none; stroke: #b0b0b0; stroke-opacity: 0.3; stroke-width: 0.8; stroke-linecap: square"/>
     </g>
     <g id="line2d_26">
      <g>
       <use xlink:href="#mdd2410c20c" x="475.47875" y="69.4" style="stroke: #000000; stroke-width: 0.8"/>
      </g>
     </g>
     <g id="text_21">
      <!-- 100 -->
      <g transform="translate(449.39125 73.199219) scale(0.1 -0.1)">
       <use xlink:href="#DejaVuSans-31"/>
       <use xlink:href="#DejaVuSans-30" transform="translate(63.623047 0)"/>
       <use xlink:href="#DejaVuSans-30" transform="translate(127.246094 0)"/>
      </g>
     </g>
    </g>
    <g id="text_22">
     <!-- Efficiency Score (higher = better) -->
     <g transform="translate(442.801875 321.705) rotate(-90) scale(0.12 -0.12)">
      <defs>
       <path id="DejaVuSans-Bold-45" d="M 588 4666 
L 3834 4666 
L 3834 3756 
L 1791 3756 
L 1791 2888 
L 3713 2888 
L 3713 1978 
L 1791 1978 
L 1791 909 
L 3903 909 
L 3903 0 
L 588 0 
L 588 4666 
z
" transform="scale(0.015625)"/>
       <path id="DejaVuSans-Bold-66" d="M 2841 4863 
L 2841 4128 
L 2222 4128 
Q 1984 4128 1890 4042 
Q 1797 3956 1797 3744 
L 1797 3500 
L 2753 3500 
L 2753 2700 
L 1797 2700 
L 1797 0 
L 678 0 
L 678 2700 
L 122 2700 
L 122 3500 
L 678 3500 
L 678 3744 
Q 678 4316 997 4589 
Q 1316 4863 1984 4863 
L 2841 4863 
z
" transform="scale(0.015625)"/>
       <path id="DejaVuSans-Bold-79" d="M 78 3500 
L 1197 3500 
L 2138 1125 
L 2938 3500 
L 4056 3500 
L 2584 -331 
Q 2363 -916 2067 -1148 
Q 1772 -1381 1288 -1381 
L 641 -1381 
L 641 -647 
L 991 -647 
Q 1275 -647 1404 -556 
Q 1534 -466 1606 -231 
L 1638 -134 
L 78 3500 
z
" transform="scale(0.015625)"/>
       <path id="DejaVuSans-Bold-3d" d="M 678 3084 
L 4684 3084 
L 4684 2350 
L 678 2350 
L 678 3084 
z
M 678 1663 
L 4684 1663 
L 4684 922 
L 678 922 
L 678 1663 
z
" transform="scale(0.015625)"/>
       <path id="DejaVuSans-Bold-62" d="M 2400 722 
Q 2759 722 2948 984 
Q 3138 1247 3138 1747 
Q 3138 2247 2948 2509 
Q 2759 2772 2400 2772 
Q 2041 2772 1848 2508 
Q 1656 2244 1656 1747 
Q 1656 1250 1848 986 
Q 2041 722 2400 722 
z
M 1656 2988 
Q 1888 3294 2169 3439 
Q 2450 3584 2816 3584 
Q 3463 3584 3878 3070 
Q 4294 2556 4294 1747 
Q 4294 938 3878 423 
Q 3463 -91 2816 -91 
Q 2450 -91 2169 54 
Q 1888 200 1656 506 
L 1656 0 
L 538 0 
L 538 4863 
L 1656 4863 
L 1656 2988 
z
" transform="scale(0.015625)"/>
      </defs>
      <use xlink:href="#DejaVuSans-Bold-45"/>
      <use xlink:href="#DejaVuSans-Bold-66" transform="translate(68.310547 0)"/>
      <use xlink:href="#DejaVuSans-Bold-66" transform="translate(111.816406 0)"/>
      <use xlink:href="#DejaVuSans-Bold-69" transform="translate(155.322266 0)"/>
      <use xlink:href="#DejaVuSans-Bold-63" transform="translate(189.599609 0)"/>
      <use xlink:href="#DejaVuSans-Bold-69" transform="translate(248.876953 0)"/>
      <use xlink:href="#DejaVuSans-Bold-65" transform="translate(283.154297 0)"/>
      <use xlink:href="#DejaVuSans-Bold-6e" transform="translate(350.976562 0)"/>
      <use xlink:href="#DejaVuSans-Bold-63" transform="translate(422.167969 0)"/>
      <use xlink:href="#DejaVuSans-Bold-79" transform="translate(481.445312 0)"/>
      <use xlink:href="#DejaVuSans-Bold-20" transform="translate(546.630859 0)"/>
      <use xlink:href="#DejaVuSans-Bold-53" transform="translate(581.445312 0)"/>
      <use xlink:href="#DejaVuSans-Bold-63" transform="translate(653.466797 0)"/>
      <use xlink:href="#DejaVuSans-Bold-6f" transform="translate(712.744141 0)"/>
      <use xlink:href="#DejaVuSans-Bold-72" transform="translate(781.445312 0)"/>
      <use xlink:href="#DejaVuSans-Bold-65" transform="translate(830.761719 0)"/>
      <use xlink:href="#DejaVuSans-Bold-20" transform="translate(898.583984 0)"/>
      <use xlink:href="#DejaVuSans-Bold-28" transform="translate(933.398438 0)"/>
      <use xlink:href="#DejaVuSans-Bold-68" transform="translate(979.101562 0)"/>
      <use xlink:href="#DejaVuSans-Bold-69" transform="translate(1050.292969 0)"/>
      <use xlink:href="#DejaVuSans-Bold-67" transform="translate(1084.570312 0)"/>
      <use xlink:href="#DejaVuSans-Bold-68" transform="translate(1156.152344 0)"/>
      <use xlink:href="#DejaVuSans-Bold-65" transform="translate(1227.34375 0)"/>
      <use xlink:href="#DejaVuSans-Bold-72" transform="translate(1295.166016 0)"/>
      <use xlink:href="#DejaVuSans-Bold-20" transform="translate(1344.482422 0)"/>
      <use xlink:href="#DejaVuSans-Bold-3d" transform="translate(1379.296875 0)"/>
      <use xlink:href="#DejaVuSans-Bold-20" transform="translate(1463.085938 0)"/>
      <use xlink:href="#DejaVuSans-Bold-62" transform="translate(1497.900391 0)"/>
      <use xlink:href="#DejaVuSans-Bold-65" transform="translate(1569.482422 0)"/>
      <use xlink:href="#DejaVuSans-Bold-74" transform="translate(1637.304688 0)"/>
      <use xlink:href="#DejaVuSans-Bold-74" transform="translate(1685.107422 0)"/>
      <use xlink:href="#DejaVuSans-Bold-65" transform="translate(1732.910156 0)"/>
      <use xlink:href="#DejaVuSans-Bold-72" transform="translate(1800.732422 0)"/>
      <use xlink:href="#DejaVuSans-Bold-29" transform="translate(1850.048828 0)"/>
     </g>
    </g>
   </g>
   <g id="patch_14">
    <path d="M 475.47875 346.52 
L 475.47875 69.4 
" style="fill: none; stroke: #000000; stroke-width: 0.8; stroke-linejoin: miter; stroke-linecap: square"/>
   </g>
   <g id="patch_15">
    <path d="M 475.47875 346.52 
L 822.549833 346.52 
" style="fill: none; stroke: #000000; stroke-width: 0.8; stroke-linejoin: miter; stroke-linecap: square"/>
   </g>
   <g id="text_23">
    <!-- 60.6 -->
    <g transform="translate(555.331375 173.290743) scale(0.12 -0.12)">
     <defs>
      <path id="DejaVuSans-Bold-30" d="M 2944 2338 
Q 2944 3213 2780 3570 
Q 2616 3928 2228 3928 
Q 1841 3928 1675 3570 
Q 1509 3213 1509 2338 
Q 1509 1453 1675 1090 
Q 1841 728 2228 728 
Q 2613 728 2778 1090 
Q 2944 1453 2944 2338 
z
M 4147 2328 
Q 4147 1169 3647 539 
Q 3147 -91 2228 -91 
Q 1306 -91 806 539 
Q 306 1169 306 2328 
Q 306 3491 806 4120 
Q 1306 4750 2228 4750 
Q 3147 4750 3647 4120 
Q 4147 3491 4147 2328 
z
" transform="scale(0.015625)"/>
     </defs>
     <use xlink:href="#DejaVuSans-Bold-36"/>
     <use xlink:href="#DejaVuSans-Bold-30" transform="translate(69.580078 0)"/>
     <use xlink:href="#DejaVuSans-Bold-2e" transform="translate(139.160156 0)"/>
     <use xlink:href="#DejaVuSans-Bold-36" transform="translate(177.148438 0)"/>
    </g>
   </g>
   <g id="text_24">
    <!-- 79.3 -->
    <g transform="translate(713.090958 121.441591) scale(0.12 -0.12)">
     <use xlink:href="#DejaVuSans-Bold-37"/>
     <use xlink:href="#DejaVuSans-Bold-39" transform="translate(69.580078 0)"/>
     <use xlink:href="#DejaVuSans-Bold-2e" transform="translate(139.160156 0)"/>
     <use xlink:href="#DejaVuSans-Bold-33" transform="translate(177.148438 0)"/>
    </g>
   </g>
   <g id="patch_16">
    <path d="M 780.26478 106.047173 
Q 715.626878 116.222369 653.197844 126.049848 
" style="fill: none; stroke: #27ae60; stroke-width: 2; stroke-linecap: round"/>
    <path d="M 659.165132 127.944967 
L 653.197844 126.049848 
L 658.294312 122.413089 
" style="fill: none; stroke: #27ae60; stroke-width: 2; stroke-linecap: round"/>
   </g>
   <g id="text_25">
    <!-- +30.9% -->
    <g style="fill: #27ae60" transform="translate(784.236792 104.538816) scale(0.14 -0.14)">
     <use xlink:href="#DejaVuSans-Bold-2b"/>
     <use xlink:href="#DejaVuSans-Bold-33" transform="translate(83.789062 0)"/>
     <use xlink:href="#DejaVuSans-Bold-30" transform="translate(153.369141 0)"/>
     <use xlink:href="#DejaVuSans-Bold-2e" transform="translate(222.949219 0)"/>
     <use xlink:href="#DejaVuSans-Bold-39" transform="translate(260.9375 0)"/>
     <use xlink:href="#DejaVuSans-Bold-25" transform="translate(330.517578 0)"/>
    </g>
   </g>
   <g id="text_26">
    <!-- Energy Efficiency Comparison -->
    <g transform="translate(539.94226 59.4) scale(0.13 -0.13)">
     <use xlink:href="#DejaVuSans-Bold-45"/>
     <use xlink:href="#DejaVuSans-Bold-6e" transform="translate(68.310547 0)"/>
     <use xlink:href="#DejaVuSans-Bold-65" transform="translate(139.501953 0)"/>
     <use xlink:href="#DejaVuSans-Bold-72" transform="translate(207.324219 0)"/>
     <use xlink:href="#DejaVuSans-Bold-67" transform="translate(256.640625 0)"/>
     <use xlink:href="#DejaVuSans-Bold-79" transform="translate(328.222656 0)"/>
     <use xlink:href="#DejaVuSans-Bold-20" transform="translate(393.408203 0)"/>
     <use xlink:href="#DejaVuSans-Bold-45" transform="translate(428.222656 0)"/>
     <use xlink:href="#DejaVuSans-Bold-66" transform="translate(496.533203 0)"/>
     <use xlink:href="#DejaVuSans-Bold-66" transform="translate(540.039062 0)"/>
     <use xlink:href="#DejaVuSans-Bold-69" transform="translate(583.544922 0)"/>
     <use xlink:href="#DejaVuSans-Bold-63" transform="translate(617.822266 0)"/>
     <use xlink:href="#DejaVuSans-Bold-69" transform="translate(677.099609 0)"/>
     <use xlink:href="#DejaVuSans-Bold-65" transform="translate(711.376953 0)"/>
     <use xlink:href="#DejaVuSans-Bold-6e" transform="translate(779.199219 0)"/>
     <use xlink:href="#DejaVuSans-Bold-63" transform="translate(850.390625 0)"/>
     <use xlink:href="#DejaVuSans-Bold-79" transform="translate(909.667969 0)"/>
     <use xlink:href="#DejaVuSans-Bold-20" transform="translate(974.853516 0)"/>
     <use xlink:href="#DejaVuSans-Bold-43" transform="translate(1009.667969 0)"/>
     <use xlink:href="#DejaVuSans-Bold-6f" transform="translate(1083.056641 0)"/>
     <use xlink:href="#DejaVuSans-Bold-6d" transform="translate(1151.757812 0)"/>
     <use xlink:href="#DejaVuSans-Bold-70" transform="translate(1255.957031 0)"/>
     <use xlink:href="#DejaVuSans-Bold-61" transform="translate(1327.539062 0)"/>
     <use xlink:href="#DejaVuSans-Bold-72" transform="translate(1395.019531 0)"/>
     <use xlink:href="#DejaVuSans-Bold-69" transform="translate(1444.335938 0)"/>
     <use xlink:href="#DejaVuSans-Bold-73" transform="translate(1478.613281 0)"/>
     <use xlink:href="#DejaVuSans-Bold-6f" transform="translate(1538.134766 0)"/>
     <use xlink:href="#DejaVuSans-Bold-6e" transform="translate(1606.835938 0)"/>
    </g>
   </g>
   <g id="legend_2">
    <g id="patch_17">
     <path d="M 482.47875 106.75625 
L 592.85375 106.75625 
Q 594.85375 106.75625 594.85375 104.75625 
L 594.85375 76.4 
Q 594.85375 74.4 592.85375 74.4 
L 482.47875 74.4 
Q 480.47875 74.4 480.47875 76.4 
L 480.47875 104.75625 
Q 480.47875 106.75625 482.47875 106.75625 
z
" style="fill: #ffffff; opacity: 0.8; stroke: #cccccc; stroke-linejoin: miter"/>
    </g>
    <g id="patch_18">
     <path d="M 484.47875 85.998437 
L 504.47875 85.998437 
L 504.47875 78.998437 
L 484.47875 78.998437 
z
" style="fill: #e74c3c; stroke: #000000; stroke-width: 1.2; stroke-linejoin: miter"/>
    </g>
    <g id="text_27">
     <!-- Jetson Only -->
     <g transform="translate(512.47875 85.998437) scale(0.1 -0.1)">
      <use xlink:href="#DejaVuSans-4a"/>
      <use xlink:href="#DejaVuSans-65" transform="translate(29.492188 0)"/>
      <use xlink:href="#DejaVuSans-74" transform="translate(91.015625 0)"/>
      <use xlink:href="#DejaVuSans-73" transform="translate(130.224609 0)"/>
      <use xlink:href="#DejaVuSans-6f" transform="translate(182.324219 0)"/>
      <use xlink:href="#DejaVuSans-6e" transform="translate(243.505859 0)"/>
      <use xlink:href="#DejaVuSans-20" transform="translate(306.884766 0)"/>
      <use xlink:href="#DejaVuSans-4f" transform="translate(338.671875 0)"/>
      <use xlink:href="#DejaVuSans-6e" transform="translate(417.382812 0)"/>
      <use xlink:href="#DejaVuSans-6c" transform="translate(480.761719 0)"/>
      <use xlink:href="#DejaVuSans-79" transform="translate(508.544922 0)"/>
     </g>
    </g>
    <g id="patch_19">
     <path d="M 484.47875 100.676562 
L 504.47875 100.676562 
L 504.47875 93.676562 
L 484.47875 93.676562 
z
" style="fill: #27ae60; stroke: #000000; stroke-width: 1.2; stroke-linejoin: miter"/>
    </g>
    <g id="text_28">
     <!-- Jetson + Loihi 2 -->
     <g transform="translate(512.47875 100.676562) scale(0.1 -0.1)">
      <use xlink:href="#DejaVuSans-4a"/>
      <use xlink:href="#DejaVuSans-65" transform="translate(29.492188 0)"/>
      <use xlink:href="#DejaVuSans-74" transform="translate(91.015625 0)"/>
      <use xlink:href="#DejaVuSans-73" transform="translate(130.224609 0)"/>
      <use xlink:href="#DejaVuSans-6f" transform="translate(182.324219 0)"/>
      <use xlink:href="#DejaVuSans-6e" transform="translate(243.505859 0)"/>
      <use xlink:href="#DejaVuSans-20" transform="translate(306.884766 0)"/>
      <use xlink:href="#DejaVuSans-2b" transform="translate(338.671875 0)"/>
      <use xlink:href="#DejaVuSans-20" transform="translate(422.460938 0)"/>
      <use xlink:href="#DejaVuSans-4c" transform="translate(454.248047 0)"/>
      <use xlink:href="#DejaVuSans-6f" transform="translate(508.210938 0)"/>
      <use xlink:href="#DejaVuSans-69" transform="translate(569.392578 0)"/>
      <use xlink:href="#DejaVuSans-68" transform="translate(597.175781 0)"/>
      <use xlink:href="#DejaVuSans-69" transform="translate(660.554688 0)"/>
      <use xlink:href="#DejaVuSans-20" transform="translate(688.337891 0)"/>
      <use xlink:href="#DejaVuSans-32" transform="translate(720.125 0)"/>
     </g>
    </g>
   </g>
  </g>
  <g id="text_29">
   <!-- Figure S1. Neuromorphic Acceleration: Throughput and Energy Efficiency -->
   <g transform="translate(138.162812 17.837812) scale(0.14 -0.14)">
    <defs>
     <path id="DejaVuSans-Bold-31" d="M 750 831 
L 1813 831 
L 1813 3847 
L 722 3622 
L 722 4441 
L 1806 4666 
L 2950 4666 
L 2950 831 
L 4013 831 
L 4013 0 
L 750 0 
L 750 831 
z
" transform="scale(0.015625)"/>
     <path id="DejaVuSans-Bold-4e" d="M 588 4666 
L 1931 4666 
L 3628 1466 
L 3628 4666 
L 4769 4666 
L 4769 0 
L 3425 0 
L 1728 3200 
L 1728 0 
L 588 0 
L 588 4666 
z
" transform="scale(0.015625)"/>
     <path id="DejaVuSans-Bold-41" d="M 3419 850 
L 1538 850 
L 1241 0 
L 31 0 
L 1759 4666 
L 3194 4666 
L 4922 0 
L 3713 0 
L 3419 850 
z
M 1838 1716 
L 3116 1716 
L 2478 3572 
L 1838 1716 
z
" transform="scale(0.015625)"/>
     <path id="DejaVuSans-Bold-6c" d="M 538 4863 
L 1656 4863 
L 1656 0 
L 538 0 
L 538 4863 
z
" transform="scale(0.015625)"/>
     <path id="DejaVuSans-Bold-3a" d="M 716 3500 
L 1844 3500 
L 1844 2291 
L 716 2291 
L 716 3500 
z
M 716 1209 
L 1844 1209 
L 1844 0 
L 716 0 
L 716 1209 
z
" transform="scale(0.015625)"/>
    </defs>
    <use xlink:href="#DejaVuSans-Bold-46"/>
    <use xlink:href="#DejaVuSans-Bold-69" transform="translate(68.310547 0)"/>
    <use xlink:href="#DejaVuSans-Bold-67" transform="translate(102.587891 0)"/>
    <use xlink:href="#DejaVuSans-Bold-75" transform="translate(174.169922 0)"/>
    <use xlink:href="#DejaVuSans-Bold-72" transform="translate(245.361328 0)"/>
    <use xlink:href="#DejaVuSans-Bold-65" transform="translate(294.677734 0)"/>
    <use xlink:href="#DejaVuSans-Bold-20" transform="translate(362.5 0)"/>
    <use xlink:href="#DejaVuSans-Bold-53" transform="translate(397.314453 0)"/>
    <use xlink:href="#DejaVuSans-Bold-31" transform="translate(469.335938 0)"/>
    <use xlink:href="#DejaVuSans-Bold-2e" transform="translate(538.916016 0)"/>
    <use xlink:href="#DejaVuSans-Bold-20" transform="translate(576.904297 0)"/>
    <use xlink:href="#DejaVuSans-Bold-4e" transform="translate(611.71875 0)"/>
    <use xlink:href="#DejaVuSans-Bold-65" transform="translate(695.410156 0)"/>
    <use xlink:href="#DejaVuSans-Bold-75" transform="translate(763.232422 0)"/>
    <use xlink:href="#DejaVuSans-Bold-72" transform="translate(834.423828 0)"/>
    <use xlink:href="#DejaVuSans-Bold-6f" transform="translate(883.740234 0)"/>
    <use xlink:href="#DejaVuSans-Bold-6d" transform="translate(952.441406 0)"/>
    <use xlink:href="#DejaVuSans-Bold-6f" transform="translate(1056.640625 0)"/>
    <use xlink:href="#DejaVuSans-Bold-72" transform="translate(1125.341797 0)"/>
    <use xlink:href="#DejaVuSans-Bold-70" transform="translate(1174.658203 0)"/>
    <use xlink:href="#DejaVuSans-Bold-68" transform="translate(1246.240234 0)"/>
    <use xlink:href="#DejaVuSans-Bold-69" transform="translate(1317.431641 0)"/>
    <use xlink:href="#DejaVuSans-Bold-63" transform="translate(1351.708984 0)"/>
    <use xlink:href="#DejaVuSans-Bold-20" transform="translate(1410.986328 0)"/>
    <use xlink:href="#DejaVuSans-Bold-41" transform="translate(1445.800781 0)"/>
    <use xlink:href="#DejaVuSans-Bold-63" transform="translate(1523.193359 0)"/>
    <use xlink:href="#DejaVuSans-Bold-63" transform="translate(1582.470703 0)"/>
    <use xlink:href="#DejaVuSans-Bold-65" transform="translate(1641.748047 0)"/>
    <use xlink:href="#DejaVuSans-Bold-6c" transform="translate(1709.570312 0)"/>
    <use xlink:href="#DejaVuSans-Bold-65" transform="translate(1743.847656 0)"/>
    <use xlink:href="#DejaVuSans-Bold-72" transform="translate(1811.669922 0)"/>
    <use xlink:href="#DejaVuSans-Bold-61" transform="translate(1860.986328 0)"/>
    <use xlink:href="#DejaVuSans-Bold-74" transform="translate(1928.466797 0)"/>
    <use xlink:href="#DejaVuSans-Bold-69" transform="translate(1976.269531 0)"/>
    <use xlink:href="#DejaVuSans-Bold-6f" transform="translate(2010.546875 0)"/>
    <use xlink:href="#DejaVuSans-Bold-6e" transform="translate(2079.248047 0)"/>
    <use xlink:href="#DejaVuSans-Bold-3a" transform="translate(2150.439453 0)"/>
    <use xlink:href="#DejaVuSans-Bold-20" transform="translate(2190.429688 0)"/>
    <use xlink:href="#DejaVuSans-Bold-54" transform="translate(2225.244141 0)"/>
    <use xlink:href="#DejaVuSans-Bold-68" transform="translate(2293.457031 0)"/>
    <use xlink:href="#DejaVuSans-Bold-72" transform="translate(2364.648438 0)"/>
    <use xlink:href="#DejaVuSans-Bold-6f" transform="translate(2413.964844 0)"/>
    <use xlink:href="#DejaVuSans-Bold-75" transform="translate(2482.666016 0)"/>
    <use xlink:href="#DejaVuSans-Bold-67" transform="translate(2553.857422 0)"/>
    <use xlink:href="#DejaVuSans-Bold-68" transform="translate(2625.439453 0)"/>
    <use xlink:href="#DejaVuSans-Bold-70" transform="translate(2696.630859 0)"/>
    <use xlink:href="#DejaVuSans-Bold-75" transform="translate(2768.212891 0)"/>
    <use xlink:href="#DejaVuSans-Bold-74" transform="translate(2839.404297 0)"/>
    <use xlink:href="#DejaVuSans-Bold-20" transform="translate(2887.207031 0)"/>
    <use xlink:href="#DejaVuSans-Bold-61" transform="translate(2922.021484 0)"/>
    <use xlink:href="#DejaVuSans-Bold-6e" transform="translate(2989.501953 0)"/>
    <use xlink:href="#DejaVuSans-Bold-64" transform="translate(3060.693359 0)"/>
    <use xlink:href="#DejaVuSans-Bold-20" transform="translate(3132.275391 0)"/>
    <use xlink:href="#DejaVuSans-Bold-45" transform="translate(3167.089844 0)"/>
    <use xlink:href="#DejaVuSans-Bold-6e" transform="translate(3235.400391 0)"/>
    <use xlink:href="#DejaVuSans-Bold-65" transform="translate(3306.591797 0)"/>
    <use xlink:href="#DejaVuSans-Bold-72" transform="translate(3374.414062 0)"/>
    <use xlink:href="#DejaVuSans-Bold-67" transform="translate(3423.730469 0)"/>
    <use xlink:href="#DejaVuSans-Bold-79" transform="translate(3495.3125 0)"/>
    <use xlink:href="#DejaVuSans-Bold-20" transform="translate(3560.498047 0)"/>
    <use xlink:href="#DejaVuSans-Bold-45" transform="translate(3595.3125 0)"/>
    <use xlink:href="#DejaVuSans-Bold-66" transform="translate(3663.623047 0)"/>
    <use xlink:href="#DejaVuSans-Bold-66" transform="translate(3707.128906 0)"/>
    <use xlink:href="#DejaVuSans-Bold-69" transform="translate(3750.634766 0)"/>
    <use xlink:href="#DejaVuSans-Bold-63" transform="translate(3784.912109 0)"/>
    <use xlink:href="#DejaVuSans-Bold-69" transform="translate(3844.189453 0)"/>
    <use xlink:href="#DejaVuSans-Bold-65" transform="translate(3878.466797 0)"/>
    <use xlink:href="#DejaVuSans-Bold-6e" transform="translate(3946.289062 0)"/>
    <use xlink:href="#DejaVuSans-Bold-63" transform="translate(4017.480469 0)"/>
    <use xlink:href="#DejaVuSans-Bold-79" transform="translate(4076.757812 0)"/>
   </g>
  </g>
 </g>
 <defs>
  <clipPath id="pcb2603ff06">
   <rect x="48.90125" y="69.4" width="347.071083" height="277.12"/>
  </clipPath>
  <clipPath id="p49f85d65f6">
   <rect x="475.47875" y="69.4" width="347.071083" height="277.12"/>
  </clipPath>
 </defs>
</svg>
